HIERARCHY
ROOT Hips
{
    OFFSET 0.000000 0.000000 0.000000
    CHANNELS 6 Xposition Yposition Zposition Zrotation Xrotation Yrotation
        JOINT Chest
        {
            OFFSET -0.000000 31.966684 -0.000000
            CHANNELS 3 Zrotation Xrotation Yrotation
            JOINT Neck
            {
                OFFSET -0.000000 23.973995 0.000000
                CHANNELS 3 Zrotation Xrotation Yrotation
                JOINT Head
                {
                    OFFSET -0.000000 10.633333 0.000000
                    CHANNELS 3 Zrotation Xrotation Yrotation
                    End Site
                    {
                        OFFSET -0.000000 16.433334 0.000000
                    }
                }
            }
            JOINT LeftCollar
            {
                OFFSET -0.000000 23.973995 0.000000
                CHANNELS 3 Zrotation Xrotation Yrotation
                JOINT LeftShoulder
                {
                    OFFSET 19.333332 -0.000000 0.000000
                    CHANNELS 3 Zrotation Xrotation Yrotation
                    JOINT LeftElbow
                    {
                        OFFSET 20.067463 0.000000 0.000000
                        CHANNELS 3 Zrotation Xrotation Yrotation
                        JOINT LeftWrist
                        {
                            OFFSET 23.490957 0.000000 0.000000
                            CHANNELS 3 Zrotation Xrotation Yrotation
                            End Site
                            {
                                OFFSET 0.000000 -14.500000 0.000000
                            }
                        }
                    }
                }
            }
            JOINT RightCollar
            {
                OFFSET -0.000000 23.973995 0.000000
                CHANNELS 3 Zrotation Xrotation Yrotation
                JOINT RightShoulder
                {
                    OFFSET -19.333332 0.000000 0.000000
                    CHANNELS 3 Zrotation Xrotation Yrotation
                    JOINT RightElbow
                    {
                        OFFSET -20.067463 0.000000 0.000000
                        CHANNELS 3 Zrotation Xrotation Yrotation
                        JOINT RightWrist
                        {
                            OFFSET -23.490957 0.000000 0.000000
                            CHANNELS 3 Zrotation Xrotation Yrotation
                            End Site
                            {
                                OFFSET -0.000000 -14.500000 0.000000
                            }
                        }
                    }
                }
            }
        }
    JOINT LeftHip
    {
        OFFSET 11.599999 0.000000 0.000000
        CHANNELS 3 Zrotation Xrotation Yrotation
        JOINT LeftKnee
        {
            OFFSET -0.000000 -35.131119 0.000000
            CHANNELS 3 Zrotation Xrotation Yrotation
            JOINT LeftAnkle
            {
                OFFSET -0.000000 -37.839104 0.000000
                CHANNELS 3 Zrotation Xrotation Yrotation
                End Site
                {
                    OFFSET -0.000000 -4.833333 16.433334
                }
            }
        }
    }
    JOINT RightHip
    {
        OFFSET -11.599999 0.000000 0.000000
        CHANNELS 3 Zrotation Xrotation Yrotation
        JOINT RightKnee
        {
            OFFSET -0.000000 -35.131119 0.000000
            CHANNELS 3 Zrotation Xrotation Yrotation
            JOINT RightAnkle
            {
                OFFSET -0.000000 -37.839104 0.000000
                CHANNELS 3 Zrotation Xrotation Yrotation
                End Site
                {
                    OFFSET -0.000000 -4.833333 16.433334
                }
            }
        }
    }
}
MOTION
Frames:    6
Frame Time:    0.010000
0.266337    78.080406    0.440351    18.595804    19.812916    -16.300739    4.308672    41.847565    19.302553    1.113051    -11.074459    -20.544336    8.137785    -13.738870    -19.670460    -12.711974    0.082256    -0.531249    -37.013580    47.645779    -29.496136    -3.734727    0.550552    -16.161209    99.557442    -5.153947    23.285246    -7.070199    -0.990117    17.101292    22.625441    -16.585155    28.847719    0.955528    0.064197    7.751433    -135.935608    49.934460    4.020949    0.671897    -30.488319    -5.819341    -32.839302    56.471363    12.372101    -3.483162    -22.078020    25.065321    -43.834290    -65.322487    -41.734299    10.628251    41.532345    -23.749136    -4.621558    6.793633    13.798140    
0.265240    78.193146    0.558106    18.372538    19.467649    -16.345285    4.368526    41.709175    19.163200    0.719945    -11.071126    -20.570440    8.446097    -13.766670    -19.618979    -12.681798    0.042413    -0.519972    -37.049862    47.235962    -29.663391    -3.713897    0.508847    -16.143644    99.557823    -5.214104    23.324551    -6.682235    -0.944727    17.292305    23.425154    -16.082659    28.848600    0.899123    0.084707    7.851455    -137.296951    49.564442    5.443359    0.482243    -30.288517    -5.906216    -32.449509    56.755924    12.003938    -3.617733    -22.220675    25.182091    -42.373520    -64.931725    -40.397495    10.330718    41.160847    -23.472712    -4.758356    6.883954    13.793420    
0.270888    78.292213    0.672881    18.122599    19.075399    -16.367048    4.423487    41.613651    19.029877    0.350966    -11.084176    -20.595715    8.792382    -13.820787    -19.562157    -12.573833    0.069415    -0.515525    -37.174973    46.699783    -29.780088    -3.893476    0.560728    -16.085907    99.653023    -5.333205    23.317968    -6.302057    -0.903413    17.436773    24.227354    -15.474715    28.856058    0.805744    0.043536    7.912581    -138.647156    49.196598    6.826900    0.281503    -30.053646    -6.059421    -32.018078    57.060871    11.544151    -3.510283    -22.301310    25.307047    -40.875229    -64.494232    -39.020309    10.018991    40.792156    -23.190342    -4.946815    6.963485    13.769814    
0.286463    78.379593    0.786069    17.851215    18.638416    -16.375761    4.452785    41.520638    18.931698    0.024020    -11.067356    -20.620619    9.160661    -13.911890    -19.503061    -12.426417    0.033797    -0.535270    -37.408939    46.199226    -29.757439    -3.876560    0.535245    -16.163975    99.685997    -5.424801    23.308336    -5.912830    -0.858396    17.540253    25.041683    -14.759386    28.855030    0.663958    0.052063    7.922720    -139.911041    48.875286    8.097693    0.060836    -29.781443    -6.278356    -31.532129    57.385593    10.964190    -3.073020    -22.287458    25.446949    -39.349613    -64.010887    -37.619637    9.681808    40.424473    -22.883102    -5.174628    7.038839    13.716398    
0.314736    78.456947    0.898799    17.562449    18.159960    -16.380846    4.442173    41.394791    18.891878    -0.250367    -10.987210    -20.645855    9.536182    -14.040405    -19.444855    -12.275232    0.052095    -0.590974    -37.713005    45.639400    -29.602325    -4.013187    0.554335    -16.234316    99.796432    -5.544249    23.226828    -5.504714    -0.803957    17.610746    25.888784    -13.966378    28.824175    0.490921    0.028029    7.892307    -141.213364    48.498333    9.370679    -0.185369    -29.469774    -6.558272    -30.978071    57.729973    10.234837    -2.253891    -22.153191    25.609592    -37.805428    -63.483120    -36.215080    9.306150    40.054539    -22.532093    -5.428589    7.120274    13.627047    
0.358004    78.525558    1.011555    17.259584    17.644953    -16.390545    4.384339    41.208740    18.923809    -0.471833    -10.828025    -20.673784    9.909486    -14.193058    -19.392437    -12.149982    0.070479    -0.689188    -38.073086    45.101349    -29.301704    -4.036475    0.581763    -16.396967    99.877617    -5.615117    23.176189    -5.076217    -0.733403    17.657373    26.803457    -13.152084    28.743879    0.291590    0.020472    7.833059    -142.545273    48.046429    10.638395    -0.459978    -29.118317    -6.894580    -30.346552    58.092579    9.337999    -1.084417    -21.899826    25.798508    -36.259754    -62.914391    -34.827145    8.892974    39.681698    -22.133036    -5.691116    7.216921    13.503770    
